<mxfile host="app.diagrams.net" modified="2024-06-12T17:58:41.107Z" agent="Mozilla/5.0 (Windows NT 10.0; Win64; x64; rv:126.0) Gecko/20100101 Firefox/126.0" etag="1_xT33rrTtnweJ5Hs-wE" version="24.5.4" type="device">
  <diagram name="PÃ¡gina-1" id="NcUw3zklXFF5DcyBGEPd">
    <mxGraphModel dx="1221" dy="761" grid="1" gridSize="10" guides="1" tooltips="1" connect="1" arrows="1" fold="1" page="1" pageScale="1" pageWidth="827" pageHeight="1169" background="#000000" math="0" shadow="0">
      <root>
        <mxCell id="0" />
        <mxCell id="1" parent="0" />
        <mxCell id="pjMFJL4pRq1TfvZJni5_-3" value="" style="rounded=0;whiteSpace=wrap;html=1;fillColor=none;strokeColor=#FF99FF;dashed=1;" vertex="1" parent="1">
          <mxGeometry x="60" y="120" width="690" height="460" as="geometry" />
        </mxCell>
        <mxCell id="pjMFJL4pRq1TfvZJni5_-20" value="" style="rounded=0;whiteSpace=wrap;html=1;fillColor=none;strokeColor=#D5E8D4;dashed=1;dashPattern=12 12;" vertex="1" parent="1">
          <mxGeometry x="90" y="160" width="410" height="400" as="geometry" />
        </mxCell>
        <mxCell id="pjMFJL4pRq1TfvZJni5_-12" value="&lt;font color=&quot;#ffffff&quot;&gt;&lt;br&gt;&lt;/font&gt;" style="sketch=0;outlineConnect=0;fontColor=#232F3E;gradientColor=none;strokeColor=#232F3E;fillColor=#ffffff;dashed=0;verticalLabelPosition=bottom;verticalAlign=top;align=center;html=1;fontSize=12;fontStyle=0;aspect=fixed;shape=mxgraph.aws4.resourceIcon;resIcon=mxgraph.aws4.topic_2;" vertex="1" parent="1">
          <mxGeometry x="330" y="330" width="40" height="40" as="geometry" />
        </mxCell>
        <mxCell id="pjMFJL4pRq1TfvZJni5_-1" value="" style="sketch=0;pointerEvents=1;shadow=0;dashed=0;html=1;strokeColor=none;fillColor=#FFFFFF;aspect=fixed;labelPosition=center;verticalLabelPosition=bottom;verticalAlign=top;align=center;outlineConnect=0;shape=mxgraph.vvd.memory;" vertex="1" parent="1">
          <mxGeometry x="105" y="350" width="50" height="19" as="geometry" />
        </mxCell>
        <mxCell id="pjMFJL4pRq1TfvZJni5_-2" value="&lt;font color=&quot;#ffffff&quot;&gt;NVS Storage&lt;br&gt;&lt;/font&gt;" style="text;html=1;align=center;verticalAlign=middle;whiteSpace=wrap;rounded=0;" vertex="1" parent="1">
          <mxGeometry x="100" y="310" width="60" height="30" as="geometry" />
        </mxCell>
        <mxCell id="pjMFJL4pRq1TfvZJni5_-7" value="" style="sketch=0;outlineConnect=0;fontColor=#232F3E;gradientColor=none;strokeColor=#232F3E;fillColor=#ffffff;dashed=0;verticalLabelPosition=bottom;verticalAlign=top;align=center;html=1;fontSize=12;fontStyle=0;aspect=fixed;shape=mxgraph.aws4.resourceIcon;resIcon=mxgraph.aws4.door_lock;" vertex="1" parent="1">
          <mxGeometry x="190" y="320" width="50" height="50" as="geometry" />
        </mxCell>
        <mxCell id="pjMFJL4pRq1TfvZJni5_-8" value="" style="sketch=0;outlineConnect=0;fontColor=#232F3E;gradientColor=none;strokeColor=#232F3E;fillColor=#ffffff;dashed=0;verticalLabelPosition=bottom;verticalAlign=top;align=center;html=1;fontSize=12;fontStyle=0;aspect=fixed;shape=mxgraph.aws4.resourceIcon;resIcon=mxgraph.aws4.door_lock;" vertex="1" parent="1">
          <mxGeometry x="330" y="450" width="50" height="50" as="geometry" />
        </mxCell>
        <mxCell id="pjMFJL4pRq1TfvZJni5_-9" value="" style="sketch=0;outlineConnect=0;fontColor=#232F3E;gradientColor=none;strokeColor=#232F3E;fillColor=#ffffff;dashed=0;verticalLabelPosition=bottom;verticalAlign=top;align=center;html=1;fontSize=12;fontStyle=0;aspect=fixed;shape=mxgraph.aws4.resourceIcon;resIcon=mxgraph.aws4.door_lock;" vertex="1" parent="1">
          <mxGeometry x="380" y="210" width="50" height="50" as="geometry" />
        </mxCell>
        <mxCell id="pjMFJL4pRq1TfvZJni5_-10" value="" style="endArrow=classic;html=1;rounded=0;exitX=1.001;exitY=1.201;exitDx=0;exitDy=0;exitPerimeter=0;strokeColor=#FFFFFF;" edge="1" parent="1" source="pjMFJL4pRq1TfvZJni5_-2" target="pjMFJL4pRq1TfvZJni5_-7">
          <mxGeometry width="50" height="50" relative="1" as="geometry">
            <mxPoint x="250" y="330" as="sourcePoint" />
            <mxPoint x="300" y="280" as="targetPoint" />
          </mxGeometry>
        </mxCell>
        <mxCell id="pjMFJL4pRq1TfvZJni5_-13" value="" style="edgeStyle=orthogonalEdgeStyle;rounded=0;orthogonalLoop=1;jettySize=auto;html=1;" edge="1" parent="1" source="pjMFJL4pRq1TfvZJni5_-12" target="pjMFJL4pRq1TfvZJni5_-8">
          <mxGeometry relative="1" as="geometry" />
        </mxCell>
        <mxCell id="pjMFJL4pRq1TfvZJni5_-15" value="" style="shape=flexArrow;endArrow=classic;startArrow=classic;html=1;rounded=0;strokeColor=#FFFFFF;" edge="1" parent="1" source="pjMFJL4pRq1TfvZJni5_-7" target="pjMFJL4pRq1TfvZJni5_-12">
          <mxGeometry width="100" height="100" relative="1" as="geometry">
            <mxPoint x="230" y="360" as="sourcePoint" />
            <mxPoint x="330" y="260" as="targetPoint" />
          </mxGeometry>
        </mxCell>
        <mxCell id="pjMFJL4pRq1TfvZJni5_-16" value="" style="shape=flexArrow;endArrow=classic;startArrow=classic;html=1;rounded=0;strokeColor=#FFFFFF;" edge="1" parent="1" source="pjMFJL4pRq1TfvZJni5_-12" target="pjMFJL4pRq1TfvZJni5_-9">
          <mxGeometry width="100" height="100" relative="1" as="geometry">
            <mxPoint x="230" y="360" as="sourcePoint" />
            <mxPoint x="330" y="260" as="targetPoint" />
          </mxGeometry>
        </mxCell>
        <mxCell id="pjMFJL4pRq1TfvZJni5_-18" value="" style="shape=flexArrow;endArrow=classic;startArrow=classic;html=1;rounded=0;strokeColor=#FFFFFF;" edge="1" parent="1" source="pjMFJL4pRq1TfvZJni5_-8" target="pjMFJL4pRq1TfvZJni5_-12">
          <mxGeometry width="100" height="100" relative="1" as="geometry">
            <mxPoint x="230" y="360" as="sourcePoint" />
            <mxPoint x="330" y="260" as="targetPoint" />
          </mxGeometry>
        </mxCell>
        <mxCell id="pjMFJL4pRq1TfvZJni5_-19" value="" style="image;html=1;image=img/lib/clip_art/computers/Server_128x128.png" vertex="1" parent="1">
          <mxGeometry x="660" y="319.5" width="80" height="80" as="geometry" />
        </mxCell>
        <mxCell id="pjMFJL4pRq1TfvZJni5_-21" value="" style="shape=flexArrow;endArrow=classic;startArrow=classic;html=1;rounded=0;exitX=1;exitY=0.5;exitDx=0;exitDy=0;entryX=0;entryY=0.5;entryDx=0;entryDy=0;strokeColor=#FFFFFF;" edge="1" parent="1" source="pjMFJL4pRq1TfvZJni5_-20" target="pjMFJL4pRq1TfvZJni5_-19">
          <mxGeometry width="100" height="100" relative="1" as="geometry">
            <mxPoint x="310" y="350" as="sourcePoint" />
            <mxPoint x="410" y="250" as="targetPoint" />
          </mxGeometry>
        </mxCell>
        <mxCell id="pjMFJL4pRq1TfvZJni5_-28" value="" style="endArrow=none;html=1;rounded=0;exitX=0.754;exitY=0.608;exitDx=0;exitDy=0;exitPerimeter=0;strokeColor=#FF6666;strokeWidth=7;" edge="1" parent="1">
          <mxGeometry width="50" height="50" relative="1" as="geometry">
            <mxPoint x="590.26" y="390.0799999999999" as="sourcePoint" />
            <mxPoint x="570" y="330" as="targetPoint" />
          </mxGeometry>
        </mxCell>
        <mxCell id="pjMFJL4pRq1TfvZJni5_-29" value="" style="endArrow=none;html=1;rounded=0;exitX=0.754;exitY=0.608;exitDx=0;exitDy=0;exitPerimeter=0;strokeColor=#FF6666;strokeWidth=7;" edge="1" parent="1">
          <mxGeometry width="50" height="50" relative="1" as="geometry">
            <mxPoint x="570.26" y="389.5399999999999" as="sourcePoint" />
            <mxPoint x="550" y="329.46" as="targetPoint" />
          </mxGeometry>
        </mxCell>
        <mxCell id="pjMFJL4pRq1TfvZJni5_-30" value="" style="endArrow=none;html=1;rounded=0;exitX=0.754;exitY=0.608;exitDx=0;exitDy=0;exitPerimeter=0;strokeColor=#FF6666;strokeWidth=7;" edge="1" parent="1">
          <mxGeometry width="50" height="50" relative="1" as="geometry">
            <mxPoint x="610.26" y="389.5399999999999" as="sourcePoint" />
            <mxPoint x="590" y="329.46" as="targetPoint" />
          </mxGeometry>
        </mxCell>
        <mxCell id="pjMFJL4pRq1TfvZJni5_-33" value="&lt;font color=&quot;#ffffff&quot;&gt;Device Majority Topic&lt;br&gt;&lt;/font&gt;" style="text;html=1;align=center;verticalAlign=middle;whiteSpace=wrap;rounded=0;" vertex="1" parent="1">
          <mxGeometry x="380" y="335" width="60" height="30" as="geometry" />
        </mxCell>
        <mxCell id="pjMFJL4pRq1TfvZJni5_-35" value="&lt;font color=&quot;#ffffff&quot;&gt;Edge Zone&lt;br&gt;&lt;/font&gt;" style="text;html=1;align=center;verticalAlign=middle;whiteSpace=wrap;rounded=0;" vertex="1" parent="1">
          <mxGeometry x="600" y="130" width="130" height="30" as="geometry" />
        </mxCell>
      </root>
    </mxGraphModel>
  </diagram>
</mxfile>
